<svg width="78" height="116" viewBox="0 0 78 116" fill="none" xmlns="http://www.w3.org/2000/svg">
<path fill-rule="evenodd" clip-rule="evenodd" d="M57.0743 81.7319C56.8538 82.3109 56.6395 82.8928 56.4314 83.4772C44.9325 87.6501 32.496 87.6501 20.9971 83.4772C20.7892 82.8927 20.5749 82.3109 20.3543 81.7319C19.7435 80.1261 19.435 79.3163 18.9014 78.5763C18.3743 77.8292 17.4485 77.0752 15.5971 75.5742C9.1145 70.3033 4.32395 62.9502 1.90449 54.5572C-0.514959 46.1643 -0.440576 37.1572 2.1171 28.8127C4.67478 20.4682 9.586 13.2096 16.1546 8.06577C22.7232 2.92195 30.616 0.15387 38.7143 0.15387C46.8125 0.15387 54.7053 2.92195 61.2739 8.06577C67.8425 13.2096 72.7537 20.4682 75.3114 28.8127C77.8691 37.1572 77.9435 46.1643 75.524 54.5572C73.1046 62.9502 68.314 70.3033 61.8314 75.5742C59.98 77.0752 59.0543 77.8292 58.5271 78.5763C57.9935 79.3163 57.6914 80.1192 57.0743 81.7319ZM24.8928 99.0458C25.4521 102.725 25.7671 106.453 25.8443 110.202C25.8507 110.698 25.9817 111.182 26.223 111.603C26.4643 112.024 26.8068 112.365 27.2135 112.59C30.7844 114.529 34.7219 115.538 38.7143 115.538C42.7066 115.538 46.6442 114.529 50.215 112.59C50.6217 112.365 50.9642 112.024 51.2055 111.603C51.4468 111.182 51.5778 110.698 51.5843 110.202C51.6614 106.453 51.9764 102.732 52.5357 99.0458C43.4163 101.077 34.0122 101.077 24.8928 99.0458Z" fill="#377A95"/>
</svg>
