<svg width="125" height="125" viewBox="0 0 125 125" fill="none" xmlns="http://www.w3.org/2000/svg">
<path d="M62.4416 55.6356C58.1853 55.6356 54.5564 54.1355 51.5549 51.1352C48.5534 48.135 47.0567 44.5027 47.0649 40.2384C47.0731 35.974 48.5698 32.3458 51.5549 29.3538C54.5564 26.3536 58.1853 24.8535 62.4416 24.8535C66.6978 24.8535 70.3267 26.3515 73.3283 29.3477C76.3216 32.3479 77.8182 35.9802 77.8182 40.2445C77.8182 44.5048 76.3216 48.135 73.3283 51.1352C70.3349 54.1355 66.706 55.6335 62.4416 55.6294M28.6129 87.8398V79.2208C28.6129 77.456 29.0127 75.882 29.8123 74.4989C30.6119 73.1157 31.7764 71.9768 33.3059 71.082C37.6851 68.4964 42.3186 66.5366 47.2064 65.2027C52.0982 63.8729 57.1766 63.208 62.4416 63.208C67.6327 63.208 72.6906 63.8729 77.6153 65.2027C82.5399 66.5325 87.1939 68.4922 91.5773 71.082C93.0288 71.9727 94.1729 73.1321 95.0094 74.5604C95.8499 75.9846 96.2702 77.5381 96.2702 79.2208V87.8398H28.6129ZM119.181 38.7978C116.004 31.2295 111.551 24.597 105.822 18.9002C100.094 13.2076 93.527 8.80984 86.1216 5.707L88.5204 0C97.0698 3.77594 104.299 8.58616 110.208 14.4307C116.12 20.2793 121.051 27.6013 125 36.3968L119.181 38.7978ZM5.70167 38.7978L0 36.3968C3.79291 27.6834 8.64579 20.388 14.5586 14.5107C20.4633 8.63336 27.7313 3.79646 36.3627 0L38.7615 5.707C31.2782 8.88782 24.6908 13.3266 18.9994 19.0233C13.308 24.7201 8.87131 31.3116 5.70167 38.7978ZM36.252 125C27.7805 121.388 20.5104 116.498 14.4418 110.329C8.37311 104.161 3.56124 96.8795 0.00615022 88.4863L5.70782 86.2022C8.88566 93.6925 13.3203 100.286 19.0117 105.983C24.7031 111.68 31.2884 116.116 38.7677 119.293L36.252 125ZM88.4097 125L86.1278 119.293C93.6111 116.112 100.198 111.675 105.89 105.983C111.581 100.29 116.014 93.6966 119.188 86.2022L124.889 88.6032C121.117 97.1607 116.213 104.456 110.177 110.489C104.137 116.523 96.8812 121.36 88.4097 125Z" fill="#377A95"/>
</svg>
