<svg width="95" height="125" viewBox="0 0 95 125" fill="none" xmlns="http://www.w3.org/2000/svg">
<path d="M48.9725 108.693C49.9813 108.575 50.773 108.222 51.3475 107.633C51.913 107.035 52.1957 106.303 52.1957 105.436C52.1957 104.419 51.861 103.637 51.1914 103.09C50.5219 102.544 49.7008 102.33 48.7282 102.447C44.0913 102.801 38.9115 101.293 33.1889 97.9256C27.4618 94.5625 23.9196 88.9338 22.5625 81.0394C22.3363 79.9278 21.9608 79.0965 21.4361 78.5454C20.9068 77.9943 20.2395 77.7187 19.4343 77.7187C18.5431 77.7187 17.7854 78.0649 17.1611 78.7573C16.5368 79.4497 16.349 80.486 16.5979 81.8661C18.3486 91.6728 22.6982 98.691 29.6468 102.921C36.5954 107.151 43.0373 109.075 48.9725 108.693ZM47.5 125C33.9195 125 22.6077 120.146 13.5646 110.438C4.52155 100.731 0 88.6276 0 74.1295C0 63.9837 3.93119 52.7616 11.7936 40.4632C19.656 28.1648 31.5581 14.6771 47.5 0C63.4464 14.6818 75.3486 28.1719 83.2064 40.4703C91.0688 52.764 95 63.9837 95 74.1295C95 88.6229 90.4784 100.726 81.4353 110.438C72.3923 120.151 61.0805 125.005 47.5 125Z" fill="#377A95"/>
</svg>
